<svg width="48" height="48" viewBox="0 0 48 48" xmlns="http://www.w3.org/2000/svg">
  <g fill="#b04f45">
    <rect x="19" y="2" width="10" height="1" />
    <rect x="18" y="3" width="12" height="1" />
    <rect x="17" y="4" width="13" height="1" />
    <rect x="17" y="5" width="5" height="1" />
    <rect x="28" y="5" width="3" height="1" />
    <rect x="16" y="6" width="7" height="1" />
    <rect x="28" y="6" width="3" height="1" />
    <rect x="16" y="7" width="3" height="1" />
    <rect x="20" y="7" width="3" height="1" />
    <rect x="29" y="7" width="3" height="1" />
    <rect x="15" y="8" width="3" height="1" />
    <rect x="21" y="8" width="3" height="1" />
    <rect x="29" y="8" width="4" height="1" />
    <rect x="14" y="9" width="4" height="1" />
    <rect x="21" y="9" width="3" height="1" />
    <rect x="30" y="9" width="3" height="1" />
    <rect x="14" y="10" width="3" height="1" />
    <rect x="22" y="10" width="12" height="1" />
    <rect x="13" y="11" width="4" height="1" />
    <rect x="22" y="11" width="12" height="1" />
    <rect x="13" y="12" width="4" height="1" />
    <rect x="22" y="12" width="12" height="1" />
    <rect x="12" y="13" width="6" height="1" />
    <rect x="21" y="13" width="3" height="1" />
    <rect x="30" y="13" width="3" height="1" />
    <rect x="12" y="14" width="6" height="1" />
    <rect x="20" y="14" width="4" height="1" />
    <rect x="29" y="14" width="4" height="1" />
    <rect x="11" y="15" width="3" height="1" />
    <rect x="16" y="15" width="3" height="1" />
    <rect x="20" y="15" width="3" height="1" />
    <rect x="29" y="15" width="3" height="1" />
    <rect x="10" y="16" width="4" height="1" />
    <rect x="16" y="16" width="7" height="1" />
    <rect x="28" y="16" width="3" height="1" />
    <rect x="10" y="17" width="3" height="1" />
    <rect x="17" y="17" width="5" height="1" />
    <rect x="28" y="17" width="3" height="1" />
    <rect x="9" y="18" width="4" height="1" />
    <rect x="17" y="18" width="21" height="1" />
    <rect x="10" y="19" width="3" height="1" />
    <rect x="18" y="19" width="21" height="1" />
    <rect x="10" y="20" width="3" height="1" />
    <rect x="17" y="20" width="22" height="1" />
    <rect x="11" y="21" width="3" height="1" />
    <rect x="16" y="21" width="4" height="1" />
    <rect x="28" y="21" width="3" height="1" />
    <rect x="37" y="21" width="3" height="1" />
    <rect x="11" y="22" width="3" height="1" />
    <rect x="16" y="22" width="3" height="1" />
    <rect x="28" y="22" width="4" height="1" />
    <rect x="37" y="22" width="4" height="1" />
    <rect x="12" y="23" width="7" height="1" />
    <rect x="29" y="23" width="3" height="1" />
    <rect x="38" y="23" width="3" height="1" />
    <rect x="12" y="24" width="6" height="1" />
    <rect x="30" y="24" width="3" height="1" />
    <rect x="38" y="24" width="4" height="1" />
    <rect x="5" y="25" width="12" height="1" />
    <rect x="30" y="25" width="12" height="1" />
    <rect x="5" y="26" width="12" height="1" />
    <rect x="31" y="26" width="12" height="1" />
    <rect x="4" y="27" width="13" height="1" />
    <rect x="30" y="27" width="13" height="1" />
    <rect x="3" y="28" width="6" height="1" />
    <rect x="15" y="28" width="3" height="1" />
    <rect x="30" y="28" width="5" height="1" />
    <rect x="41" y="28" width="3" height="1" />
    <rect x="3" y="29" width="7" height="1" />
    <rect x="15" y="29" width="4" height="1" />
    <rect x="29" y="29" width="7" height="1" />
    <rect x="41" y="29" width="4" height="1" />
    <rect x="2" y="30" width="3" height="1" />
    <rect x="7" y="30" width="3" height="1" />
    <rect x="16" y="30" width="3" height="1" />
    <rect x="28" y="30" width="4" height="1" />
    <rect x="33" y="30" width="3" height="1" />
    <rect x="42" y="30" width="3" height="1" />
    <rect x="2" y="31" width="3" height="1" />
    <rect x="8" y="31" width="3" height="1" />
    <rect x="16" y="31" width="4" height="1" />
    <rect x="28" y="31" width="3" height="1" />
    <rect x="34" y="31" width="3" height="1" />
    <rect x="42" y="31" width="4" height="1" />
    <rect x="1" y="32" width="3" height="1" />
    <rect x="8" y="32" width="3" height="1" />
    <rect x="16" y="32" width="5" height="1" />
    <rect x="27" y="32" width="4" height="1" />
    <rect x="34" y="32" width="4" height="1" />
    <rect x="43" y="32" width="3" height="1" />
    <rect x="1" y="33" width="3" height="1" />
    <rect x="9" y="33" width="21" height="1" />
    <rect x="35" y="33" width="12" height="1" />
    <rect x="0" y="34" width="4" height="1" />
    <rect x="9" y="34" width="21" height="1" />
    <rect x="35" y="34" width="12" height="1" />
    <rect x="1" y="35" width="3" height="1" />
    <rect x="8" y="35" width="22" height="1" />
    <rect x="34" y="35" width="13" height="1" />
    <rect x="1" y="36" width="4" height="1" />
    <rect x="8" y="36" width="3" height="1" />
    <rect x="17" y="36" width="3" height="1" />
    <rect x="25" y="36" width="6" height="1" />
    <rect x="34" y="36" width="3" height="1" />
    <rect x="43" y="36" width="3" height="1" />
    <rect x="2" y="37" width="3" height="1" />
    <rect x="7" y="37" width="3" height="1" />
    <rect x="16" y="37" width="3" height="1" />
    <rect x="24" y="37" width="7" height="1" />
    <rect x="33" y="37" width="4" height="1" />
    <rect x="42" y="37" width="3" height="1" />
    <rect x="3" y="38" width="7" height="1" />
    <rect x="15" y="38" width="4" height="1" />
    <rect x="24" y="38" width="3" height="1" />
    <rect x="29" y="38" width="7" height="1" />
    <rect x="42" y="38" width="3" height="1" />
    <rect x="3" y="39" width="6" height="1" />
    <rect x="15" y="39" width="3" height="1" />
    <rect x="23" y="39" width="3" height="1" />
    <rect x="29" y="39" width="6" height="1" />
    <rect x="41" y="39" width="3" height="1" />
    <rect x="4" y="40" width="22" height="1" />
    <rect x="30" y="40" width="6" height="1" />
    <rect x="40" y="40" width="4" height="1" />
    <rect x="4" y="41" width="21" height="1" />
    <rect x="31" y="41" width="12" height="1" />
    <rect x="5" y="42" width="20" height="1" />
    <rect x="31" y="42" width="12" height="1" />
  </g>
</svg>